<svg viewBox="0 0 1000 600" xmlns="http://www.w3.org/2000/svg" font-family="-apple-system, BlinkMacSystemFont, 'Segoe UI', Arial, sans-serif">
  <!-- Browser chrome -->
  <rect width="1000" height="600" fill="#1a1a2e" rx="8"/>
  <rect x="0" y="0" width="1000" height="36" fill="#2d2d44" rx="8"/>
  <rect x="0" y="20" width="1000" height="16" fill="#2d2d44"/>
  <circle cx="20" cy="18" r="6" fill="#ff5f57"/>
  <circle cx="40" cy="18" r="6" fill="#febc2e"/>
  <circle cx="60" cy="18" r="6" fill="#28c840"/>
  <rect x="100" y="8" width="700" height="20" rx="10" fill="#1a1a2e"/>
  <text x="450" y="22" text-anchor="middle" font-size="11" fill="#aaa">https://console-openshift-console.apps.../k8s/ns/prague-user-ns/deployments/my-deployment</text>

  <rect x="0" y="36" width="1000" height="564" fill="#0f0f0f"/>
  <!-- Top nav -->
  <rect x="0" y="36" width="1000" height="48" fill="#1b1d21"/>
  <rect x="12" y="48" width="28" height="22" rx="2" fill="#ff0454"/>
  <text x="16" y="63" font-size="12" font-weight="bold" fill="white">RH</text>
  <text x="48" y="63" font-size="14" font-weight="bold" fill="white">OpenShift</text>
  <rect x="150" y="50" width="130" height="22" rx="3" fill="#3c3f42"/>
  <text x="215" y="65" text-anchor="middle" font-size="12" fill="white">Administrator</text>
  <text x="310" y="65" font-size="12" fill="#8a8d90">Project: prague-user-ns</text>

  <!-- Left sidebar -->
  <rect x="0" y="84" width="220" height="516" fill="#1b1d21"/>
  <text x="20" y="112" font-size="12" fill="#8a8d90">Home</text>
  <text x="20" y="140" font-size="12" fill="#8a8d90">Operators</text>
  <rect x="0" y="152" width="220" height="26" fill="#202cac" rx="0"/>
  <text x="20" y="170" font-size="12" font-weight="bold" fill="white">Workloads</text>
  <text x="36" y="198" font-size="11" fill="#8a8d90">Pods</text>
  <text x="36" y="220" font-size="11" fill="#8a8d90">Deployments</text>
  <rect x="0" y="225" width="220" height="22" fill="#2a2d31"/>
  <text x="36" y="240" font-size="11" fill="white">  my-deployment</text>
  <text x="36" y="262" font-size="11" fill="#8a8d90">ReplicaSets</text>
  <text x="36" y="284" font-size="11" fill="#8a8d90">StatefulSets</text>
  <text x="36" y="306" font-size="11" fill="#8a8d90">DaemonSets</text>
  <text x="20" y="334" font-size="12" fill="#8a8d90">Networking</text>
  <text x="20" y="362" font-size="12" fill="#8a8d90">Storage</text>

  <!-- Main content -->
  <rect x="220" y="84" width="780" height="516" fill="#0f0f0f"/>

  <!-- Breadcrumb -->
  <text x="235" y="108" font-size="12" fill="#8a8d90">Workloads > Deployments > my-deployment</text>

  <!-- Title row -->
  <text x="235" y="136" font-size="22" font-weight="bold" fill="white">my-deployment</text>
  <rect x="690" y="118" width="80" height="26" rx="4" fill="#3c3f42" stroke="#5a5d62" stroke-width="1"/>
  <text x="730" y="135" text-anchor="middle" font-size="12" fill="white">Actions v</text>
  <rect x="780" y="118" width="100" height="26" rx="4" fill="#202cac"/>
  <text x="830" y="135" text-anchor="middle" font-size="12" fill="white">Edit YAML</text>
  <rect x="886" y="118" width="100" height="26" rx="4" fill="#202cac"/>
  <text x="936" y="135" text-anchor="middle" font-size="12" fill="white">Restart rollout</text>

  <!-- Tabs -->
  <rect x="220" y="150" width="780" height="32" fill="#1b1d21"/>
  <text x="240" y="171" font-size="12" fill="white">Details</text>
  <rect x="235" y="178" width="55" height="3" fill="#202cac" rx="1"/>
  <text x="310" y="171" font-size="12" fill="#8a8d90">YAML</text>
  <text x="375" y="171" font-size="12" fill="#8a8d90">Pods</text>
  <text x="435" y="171" font-size="12" fill="#8a8d90">Environment</text>
  <text x="535" y="171" font-size="12" fill="#8a8d90">Events</text>

  <!-- Status section -->
  <rect x="235" y="195" width="480" height="230" rx="6" fill="#1b1d21" stroke="#2c2f33" stroke-width="1"/>
  <text x="255" y="218" font-size="14" font-weight="bold" fill="white">Deployment details</text>
  <line x1="235" y1="228" x2="715" y2="228" stroke="#2c2f33" stroke-width="1"/>

  <!-- Status grid -->
  <text x="255" y="250" font-size="11" fill="#8a8d90">Name</text>
  <text x="400" y="250" font-size="11" fill="white">my-deployment</text>
  <text x="255" y="275" font-size="11" fill="#8a8d90">Namespace</text>
  <text x="400" y="275" font-size="11" fill="#202cac">prague-user-ns</text>
  <text x="255" y="300" font-size="11" fill="#8a8d90">Status</text>
  <rect x="398" y="287" width="70" height="18" rx="9" fill="#1e4620"/>
  <text x="433" y="300" text-anchor="middle" font-size="11" fill="#3db838">Available</text>
  <text x="255" y="325" font-size="11" fill="#8a8d90">Replicas</text>
  <text x="400" y="325" font-size="11" fill="white">3 of 3 pods</text>
  <text x="255" y="350" font-size="11" fill="#8a8d90">Strategy</text>
  <text x="400" y="350" font-size="11" fill="white">RollingUpdate</text>
  <text x="255" y="375" font-size="11" fill="#8a8d90">Image</text>
  <text x="400" y="375" font-size="11" fill="white">registry.access.redhat.com/ubi9/httpd-24:1-325</text>
  <text x="255" y="400" font-size="11" fill="#8a8d90">Created</text>
  <text x="400" y="400" font-size="11" fill="white">2 hours ago</text>

  <!-- Pods section -->
  <rect x="235" y="440" width="740" height="140" rx="6" fill="#1b1d21" stroke="#2c2f33" stroke-width="1"/>
  <text x="255" y="462" font-size="14" font-weight="bold" fill="white">Pods (3)</text>
  <line x1="235" y1="470" x2="975" y2="470" stroke="#2c2f33" stroke-width="1"/>
  <!-- Pod table header -->
  <text x="255" y="490" font-size="11" fill="#6a6e73">NAME</text>
  <text x="510" y="490" font-size="11" fill="#6a6e73">READY</text>
  <text x="590" y="490" font-size="11" fill="#6a6e73">STATUS</text>
  <text x="700" y="490" font-size="11" fill="#6a6e73">RESTARTS</text>
  <text x="820" y="490" font-size="11" fill="#6a6e73">AGE</text>
  <!-- Pod rows -->
  <text x="255" y="512" font-size="11" fill="white">my-deployment-6f8b9c7d5-xk2mn</text>
  <text x="510" y="512" font-size="11" fill="white">1/1</text>
  <rect x="585" y="500" width="66" height="17" rx="8" fill="#1e4620"/>
  <text x="618" y="512" text-anchor="middle" font-size="10" fill="#3db838">Running</text>
  <text x="700" y="512" font-size="11" fill="white">0</text>
  <text x="820" y="512" font-size="11" fill="white">2h</text>

  <text x="255" y="534" font-size="11" fill="white">my-deployment-6f8b9c7d5-p9nqs</text>
  <text x="510" y="534" font-size="11" fill="white">1/1</text>
  <rect x="585" y="522" width="66" height="17" rx="8" fill="#1e4620"/>
  <text x="618" y="534" text-anchor="middle" font-size="10" fill="#3db838">Running</text>
  <text x="700" y="534" font-size="11" fill="white">0</text>
  <text x="820" y="534" font-size="11" fill="white">2h</text>

  <text x="255" y="556" font-size="11" fill="white">my-deployment-6f8b9c7d5-r7tvc</text>
  <text x="510" y="556" font-size="11" fill="white">1/1</text>
  <rect x="585" y="544" width="66" height="17" rx="8" fill="#1e4620"/>
  <text x="618" y="556" text-anchor="middle" font-size="10" fill="#3db838">Running</text>
  <text x="700" y="556" font-size="11" fill="white">0</text>
  <text x="820" y="556" font-size="11" fill="white">2h</text>
</svg>
