<svg xmlns="http://www.w3.org/2000/svg" viewBox="0 0 800 400" width="800" height="400" font-family="'Segoe UI', Arial, sans-serif">
  <rect width="800" height="400" rx="8" fill="#F5F5F5"/>

  <!-- Title -->
  <text x="400" y="35" text-anchor="middle" font-size="18" font-weight="bold" fill="#333">oc étend kubectl</text>

  <!-- Outer circle: oc -->
  <ellipse cx="400" cy="220" rx="350" ry="160" fill="#FFEBEE" stroke="#EE0000" stroke-width="2.5"/>
  <text x="680" y="85" font-size="22" font-weight="bold" fill="#EE0000">oc</text>
  <rect x="640" y="72" width="50" height="28" rx="4" fill="none" stroke="#EE0000" stroke-width="1.5"/>

  <!-- Inner circle: kubectl -->
  <ellipse cx="340" cy="225" rx="220" ry="130" fill="#E3F2FD" stroke="#326CE5" stroke-width="2.5"/>
  <text x="210" y="115" font-size="20" font-weight="bold" fill="#326CE5">kubectl</text>
  <rect x="190" y="100" width="90" height="26" rx="4" fill="none" stroke="#326CE5" stroke-width="1.5"/>

  <!-- kubectl commands -->
  <g font-size="14" fill="#333">
    <rect x="200" y="145" width="90" height="28" rx="5" fill="white" stroke="#326CE5" stroke-width="1"/>
    <text x="245" y="164" text-anchor="middle" font-size="13" font-family="monospace" fill="#326CE5">get</text>

    <rect x="300" y="145" width="90" height="28" rx="5" fill="white" stroke="#326CE5" stroke-width="1"/>
    <text x="345" y="164" text-anchor="middle" font-size="13" font-family="monospace" fill="#326CE5">describe</text>

    <rect x="400" y="145" width="90" height="28" rx="5" fill="white" stroke="#326CE5" stroke-width="1"/>
    <text x="445" y="164" text-anchor="middle" font-size="13" font-family="monospace" fill="#326CE5">apply</text>

    <rect x="200" y="195" width="90" height="28" rx="5" fill="white" stroke="#326CE5" stroke-width="1"/>
    <text x="245" y="214" text-anchor="middle" font-size="13" font-family="monospace" fill="#326CE5">delete</text>

    <rect x="300" y="195" width="90" height="28" rx="5" fill="white" stroke="#326CE5" stroke-width="1"/>
    <text x="345" y="214" text-anchor="middle" font-size="13" font-family="monospace" fill="#326CE5">logs</text>

    <rect x="400" y="195" width="90" height="28" rx="5" fill="white" stroke="#326CE5" stroke-width="1"/>
    <text x="445" y="214" text-anchor="middle" font-size="13" font-family="monospace" fill="#326CE5">exec</text>
  </g>

  <!-- oc-only commands (right crescent area) -->
  <g font-size="14" fill="#333">
    <rect x="590" y="145" width="120" height="28" rx="5" fill="white" stroke="#EE0000" stroke-width="1"/>
    <text x="650" y="164" text-anchor="middle" font-size="13" font-family="monospace" fill="#EE0000">new-app</text>

    <rect x="590" y="185" width="120" height="28" rx="5" fill="white" stroke="#EE0000" stroke-width="1"/>
    <text x="650" y="204" text-anchor="middle" font-size="13" font-family="monospace" fill="#EE0000">new-project</text>

    <rect x="590" y="225" width="120" height="28" rx="5" fill="white" stroke="#EE0000" stroke-width="1"/>
    <text x="650" y="244" text-anchor="middle" font-size="13" font-family="monospace" fill="#EE0000">login</text>

    <rect x="590" y="265" width="120" height="28" rx="5" fill="white" stroke="#EE0000" stroke-width="1"/>
    <text x="650" y="284" text-anchor="middle" font-size="13" font-family="monospace" fill="#EE0000">routes</text>

    <rect x="590" y="305" width="120" height="28" rx="5" fill="white" stroke="#EE0000" stroke-width="1"/>
    <text x="650" y="324" text-anchor="middle" font-size="13" font-family="monospace" fill="#EE0000">builds</text>
  </g>

  <!-- Legend -->
  <rect x="160" y="330" width="14" height="14" rx="3" fill="#E3F2FD" stroke="#326CE5" stroke-width="1"/>
  <text x="180" y="342" font-size="12" fill="#555">Commandes Kubernetes standard</text>

  <rect x="380" y="330" width="14" height="14" rx="3" fill="#FFEBEE" stroke="#EE0000" stroke-width="1"/>
  <text x="400" y="342" font-size="12" fill="#555">Extensions OpenShift (oc uniquement)</text>
</svg>